<svg width="562" height="95" viewBox="0 0 562 95" fill="none" xmlns="http://www.w3.org/2000/svg">
<path d="M62.4286 3.7116C71.2825 3.7116 78.4861 10.6172 78.709 19.2182C78.7125 19.3547 78.7143 19.4916 78.7143 19.6289V64.7278H62.4286V19.6289H16.2857V3.7116H62.4286Z" fill="#FAFAFA"/>
<path d="M16.2857 66.0542H62.4286V81.9715H16.2857C7.29136 81.9715 0 74.8451 0 66.0542V20.9553H16.2857V66.0542Z" fill="#FAFAFA"/>
<path d="M78.7143 64.7278H95V89.9301C86.0056 89.9301 78.7143 82.8037 78.7143 74.0128V64.7278Z" fill="#FAFAFA"/>
<path d="M108.49 2.196H119.47L152.898 76.494L186.326 2.196H197.428V92.72H186.936V24.034L156.314 92.72H149.36L118.982 24.644V92.72H108.49V2.196Z" fill="#FAFAFA"/>
<path d="M205.646 59.536C205.646 52.8667 207.191 46.8887 210.282 41.602C213.373 36.234 217.561 32.0047 222.848 28.914C228.135 25.742 234.031 24.156 240.538 24.156C247.045 24.156 252.86 25.7013 257.984 28.792C263.189 31.8827 267.297 36.0713 270.306 41.358C273.397 46.6447 274.942 52.582 274.942 59.17V62.464H215.65C216.057 66.9373 217.399 70.9227 219.676 74.42C221.953 77.9173 224.881 80.6827 228.46 82.716C232.039 84.668 236.065 85.644 240.538 85.644C245.337 85.644 249.647 84.4647 253.47 82.106C257.293 79.666 260.221 76.2907 262.254 71.98H272.868C271.323 76.616 268.964 80.642 265.792 84.058C262.62 87.474 258.879 90.158 254.568 92.11C250.257 93.9807 245.581 94.916 240.538 94.916C233.95 94.916 228.013 93.3707 222.726 90.28C217.521 87.108 213.373 82.838 210.282 77.47C207.191 72.102 205.646 66.124 205.646 59.536ZM224.434 39.162C220.042 42.9033 217.236 47.7833 216.016 53.802H264.572C263.515 47.702 260.79 42.7813 256.398 39.04C252.087 35.2987 246.801 33.428 240.538 33.428C234.275 33.428 228.907 35.3393 224.434 39.162Z" fill="#FAFAFA"/>
<path d="M316.703 75.152C316.703 72.3053 315.808 70.028 314.019 68.32C312.23 66.612 309.098 65.148 304.625 63.928L300.477 62.83C288.521 59.414 282.543 52.8667 282.543 43.188C282.543 39.4467 283.438 36.1527 285.227 33.306C287.016 30.4593 289.456 28.2227 292.547 26.596C295.719 24.9693 299.298 24.156 303.283 24.156C309.22 24.156 314.222 25.9047 318.289 29.402C322.356 32.8993 324.796 37.5353 325.609 43.31H315.605C314.954 40.138 313.531 37.698 311.335 35.99C309.22 34.282 306.536 33.428 303.283 33.428C300.111 33.428 297.508 34.3227 295.475 36.112C293.523 37.9013 292.547 40.2193 292.547 43.066C292.547 45.8313 293.442 48.068 295.231 49.776C297.02 51.4027 300.152 52.826 304.625 54.046L308.651 55.266C320.688 58.5193 326.707 65.1073 326.707 75.03C326.707 78.8527 325.731 82.2687 323.779 85.278C321.908 88.2873 319.306 90.646 315.971 92.354C312.718 94.062 308.936 94.916 304.625 94.916C297.793 94.916 292.181 93.0047 287.789 89.182C283.478 85.3593 280.835 80.0727 279.859 73.322H289.863C290.432 77.1447 292.018 80.154 294.621 82.35C297.305 84.546 300.64 85.644 304.625 85.644C308.204 85.644 311.091 84.668 313.287 82.716C315.564 80.764 316.703 78.2427 316.703 75.152Z" fill="#FAFAFA"/>
<path d="M334.131 2.196H343.891V34.77C346.331 31.4353 349.381 28.8327 353.041 26.962C356.782 25.0913 361.012 24.156 365.729 24.156C370.934 24.156 375.448 25.2947 379.271 27.572C383.094 29.8493 386.062 33.0213 388.177 37.088C390.373 41.0733 391.471 45.7907 391.471 51.24V92.72H381.711V53.07C381.711 46.97 380.166 42.1713 377.075 38.674C373.984 35.1767 369.714 33.428 364.265 33.428C358.084 33.428 353.122 35.5427 349.381 39.772C345.721 43.92 343.891 49.4507 343.891 56.364V92.72H334.131V2.196Z" fill="#FAFAFA"/>
<path d="M399.255 47.58C399.255 40.8293 400.475 34.6073 402.915 28.914C405.355 23.1393 408.73 18.0967 413.041 13.786C417.433 9.47533 422.516 6.1 428.291 3.66C434.066 1.22 440.288 0 446.957 0C453.708 0 459.97 1.22 465.745 3.66C471.52 6.01867 476.562 9.35334 480.873 13.664C485.184 17.8933 488.518 22.8953 490.877 28.67C493.317 34.4447 494.537 40.7073 494.537 47.458C494.537 53.3953 493.52 59.0073 491.487 64.294C489.535 69.4993 486.81 74.176 483.313 78.324C486.078 79.788 488.844 80.886 491.609 81.618C494.456 82.35 497.587 82.7567 501.003 82.838V92.72C495.635 92.6387 490.999 92.0693 487.095 91.012C483.191 89.8733 479.328 88.084 475.505 85.644C471.52 88.572 467.087 90.8493 462.207 92.476C457.408 94.1027 452.325 94.916 446.957 94.916C440.125 94.916 433.822 93.7367 428.047 91.378C422.272 88.938 417.23 85.6033 412.919 81.374C408.608 77.0633 405.233 72.0207 402.793 66.246C400.434 60.4713 399.255 54.2493 399.255 47.58ZM410.235 47.458C410.235 50.4673 410.52 53.3547 411.089 56.12C414.424 54.7373 417.84 53.68 421.337 52.948C424.834 52.216 428.332 51.85 431.829 51.85C437.848 51.85 443.46 52.8667 448.665 54.9C453.87 56.852 459.035 59.9427 464.159 64.172C466.111 65.7987 467.941 67.344 469.649 68.808C471.357 70.1907 473.024 71.4513 474.651 72.59C477.416 69.3367 479.572 65.5953 481.117 61.366C482.744 57.0553 483.557 52.4193 483.557 47.458C483.557 40.3007 481.93 33.916 478.677 28.304C475.505 22.6107 471.154 18.1373 465.623 14.884C460.174 11.5493 453.952 9.882 446.957 9.882C439.962 9.882 433.7 11.5493 428.169 14.884C422.638 18.1373 418.246 22.6107 414.993 28.304C411.821 33.916 410.235 40.3007 410.235 47.458ZM414.383 65.392C417.392 71.3293 421.744 76.0873 427.437 79.666C433.13 83.2447 439.637 85.034 446.957 85.034C450.698 85.034 454.236 84.546 457.571 83.57C460.987 82.5127 464.118 81.0893 466.965 79.3C465.908 78.4053 464.81 77.5107 463.671 76.616C462.614 75.64 461.475 74.6233 460.255 73.566C455.456 69.3367 450.739 66.2867 446.103 64.416C441.548 62.5453 436.587 61.61 431.219 61.61C428.291 61.61 425.363 61.976 422.435 62.708C419.507 63.3587 416.823 64.2533 414.383 65.392Z" fill="#FAFAFA"/>
<path d="M504.615 67.832V26.352H514.375V66.002C514.375 72.102 515.88 76.9007 518.889 80.398C521.98 83.8953 526.209 85.644 531.577 85.644C537.677 85.644 542.557 83.57 546.217 79.422C549.877 75.1927 551.707 69.6213 551.707 62.708V26.352H561.467V92.72H552.073V83.936C549.715 87.4333 546.665 90.158 542.923 92.11C539.182 93.9807 534.912 94.916 530.113 94.916C524.989 94.916 520.516 93.7773 516.693 91.5C512.871 89.2227 509.902 86.0507 507.787 81.984C505.673 77.9173 504.615 73.2 504.615 67.832Z" fill="#FAFAFA"/>
</svg>
